<svg width="32" height="32" viewBox="0 0 32 32" fill="none" xmlns="http://www.w3.org/2000/svg">
<rect width="32" height="32" rx="4" fill="#4E91FD"/>
<path d="M9.53662 23H6.70703V9.43652H14.4814V11.793H9.53662V15.2905H14.1382V17.6377H9.53662V23ZM21.274 14.335C22.5852 14.335 23.6274 14.703 24.4005 15.439C25.1798 16.175 25.5694 17.1831 25.5694 18.4634C25.5694 19.9787 25.1025 21.1445 24.1686 21.9609C23.2346 22.7773 21.8987 23.1855 20.1607 23.1855C18.6516 23.1855 17.4332 22.9412 16.5055 22.4526V19.9756C16.9941 20.2354 17.5631 20.4487 18.2125 20.6157C18.8619 20.7765 19.4773 20.8569 20.0587 20.8569C21.809 20.8569 22.6842 20.1395 22.6842 18.7046C22.6842 17.3377 21.7781 16.6543 19.9659 16.6543C19.6381 16.6543 19.2763 16.6883 18.8805 16.7563C18.4846 16.8182 18.163 16.8862 17.9156 16.9604L16.7745 16.3481L17.2848 9.43652H24.6417V11.8672H19.7989L19.5484 14.5298L19.8731 14.4648C20.2504 14.3783 20.7174 14.335 21.274 14.335Z" fill="#F2EE53"/>
</svg>